<svg width="56" height="56" viewBox="0 0 56 56" fill="none" xmlns="http://www.w3.org/2000/svg">
<path fill-rule="evenodd" clip-rule="evenodd" d="M36.1021 6.00131L20.3194 6C17.4316 6.01849 14.5105 6.12132 11.9084 7.51294C9.87091 8.60259 8.34322 10.2874 7.29809 12.3278C6.37427 14.2171 6.02508 16.1702 6.00131 19.8979L6 35.6806C6.01849 38.5684 6.12132 41.4895 7.51294 44.0916C8.52428 45.9827 10.0173 47.4757 11.9084 48.4871C14.5105 49.8787 17.4316 49.9815 20.3194 50H35.6806C38.5684 49.9815 41.4895 49.8787 44.0916 48.4871C45.9827 47.4757 47.4757 45.9827 48.4871 44.0916C49.8787 41.4895 49.9815 38.5684 50 35.6806V20.3194C49.9815 17.4316 49.8787 14.5105 48.4871 11.9084C47.4757 10.0173 45.9827 8.52428 44.0916 7.51294C41.5892 6.23121 38.8799 6.01902 36.1021 6.00131V6.00131ZM9 35.6806V21C9.0053 20.6882 9.00784 20.3747 9.01039 20.0601C9.02902 17.7559 9.04808 15.3992 10.1584 13.3232C10.8901 11.9549 11.9549 10.8901 13.3232 10.1584C15.4397 9.02644 17.868 9.01328 20.2128 9.00058L20.3194 9H35.6806C39.5182 9 41.0718 9.30002 42.6768 10.1584C44.0451 10.8901 45.1099 11.9549 45.8416 13.3232C46.9519 15.3992 46.971 17.7558 46.9896 20.06C46.9922 20.3746 46.9947 20.6882 47 21V35.6806L46.9996 35.7631C46.9871 38.1033 46.974 40.5595 45.8416 42.6768C45.1099 44.0451 44.0451 45.1099 42.6768 45.8416C40.5603 46.9736 38.1321 46.9867 35.7872 46.9994H20.2128C17.8679 46.9867 15.4397 46.9736 13.3232 45.8416C11.9549 45.1099 10.8901 44.0451 10.1584 42.6768C9.02627 40.56 9.01305 38.1044 9.00045 35.7646L9 35.6806ZM17.5 17C16.6716 17 16 17.6716 16 18.5C16 19.3284 16.6716 20 17.5 20H38.5C39.3284 20 40 19.3284 40 18.5C40 17.6716 39.3284 17 38.5 17H17.5ZM16 28C16 27.1716 16.6716 26.5 17.5 26.5H38.5C39.3284 26.5 40 27.1716 40 28C40 28.8284 39.3284 29.5 38.5 29.5H17.5C16.6716 29.5 16 28.8284 16 28ZM17.5 36C16.6716 36 16 36.6716 16 37.5C16 38.3284 16.6716 39 17.5 39H26.5C27.3284 39 28 38.3284 28 37.5C28 36.6716 27.3284 36 26.5 36H17.5Z" fill="#6061CA"/>
</svg>
