<svg width="56" height="56" viewBox="0 0 56 56" fill="none" xmlns="http://www.w3.org/2000/svg">
<path d="M13.9097 30L18.4377 30.0018C20.4676 30.0241 21.5382 30.2508 22.6495 30.8451C23.7257 31.4207 24.5793 32.2743 25.1549 33.3505C25.7822 34.5235 26 35.6512 26 37.9097V42.0903C26 44.3488 25.7822 45.4765 25.1549 46.6495C24.5793 47.7257 23.7257 48.5793 22.6495 49.1549C21.4765 49.7822 20.3488 50 18.0903 50H13.9097C11.6512 50 10.5235 49.7822 9.35049 49.1549C8.27427 48.5793 7.42068 47.7257 6.84511 46.6495C6.21777 45.4765 6 44.3488 6 42.0903L6.00184 37.5623C6.02406 35.5324 6.25079 34.4618 6.84511 33.3505C7.42068 32.2743 8.27427 31.4207 9.35049 30.8451C10.5235 30.2178 11.6512 30 13.9097 30ZM37.9097 30L42.4377 30.0018C44.4676 30.0241 45.5382 30.2508 46.6495 30.8451C47.7257 31.4207 48.5793 32.2743 49.1549 33.3505C49.7822 34.5235 50 35.6512 50 37.9097V42.0903C50 44.3488 49.7822 45.4765 49.1549 46.6495C48.5793 47.7257 47.7257 48.5793 46.6495 49.1549C45.4765 49.7822 44.3488 50 42.0903 50H37.9097C35.6512 50 34.5235 49.7822 33.3505 49.1549C32.2743 48.5793 31.4207 47.7257 30.8451 46.6495C30.2178 45.4765 30 44.3488 30 42.0903L30.0018 37.5623C30.0241 35.5324 30.2508 34.4618 30.8451 33.3505C31.4207 32.2743 32.2743 31.4207 33.3505 30.8451C34.5235 30.2178 35.6512 30 37.9097 30ZM18.0903 33L13.634 33.0011C12.0346 33.0141 11.4085 33.1465 10.7653 33.4906C10.2119 33.7865 9.78652 34.2119 9.49055 34.7653C9.12742 35.4443 9 36.1041 9 37.9097L9.00107 42.366C9.01407 43.9654 9.14653 44.5915 9.49055 45.2347C9.78652 45.7881 10.2119 46.2135 10.7653 46.5095C11.3728 46.8344 11.965 46.9706 13.3763 46.9956L13.9097 47H18.0903C19.8959 47 20.5557 46.8726 21.2347 46.5095C21.7881 46.2135 22.2135 45.7881 22.5094 45.2347C22.8344 44.6272 22.9706 44.035 22.9956 42.6238L23 42.0903V37.9097C23 36.1041 22.8726 35.4443 22.5094 34.7653C22.2135 34.2119 21.7881 33.7865 21.2347 33.4906C20.5557 33.1274 19.8959 33 18.0903 33ZM42.0903 33L37.634 33.0011C36.0346 33.0141 35.4085 33.1465 34.7653 33.4906C34.2119 33.7865 33.7865 34.2119 33.4906 34.7653C33.1274 35.4443 33 36.1041 33 37.9097L33.0011 42.366C33.0141 43.9654 33.1465 44.5915 33.4906 45.2347C33.7865 45.7881 34.2119 46.2135 34.7653 46.5095C35.3728 46.8344 35.965 46.9706 37.3763 46.9956L37.9097 47H42.0903C43.8959 47 44.5557 46.8726 45.2347 46.5095C45.7881 46.2135 46.2135 45.7881 46.5094 45.2347C46.8344 44.6272 46.9706 44.035 46.9956 42.6238L47 42.0903V37.9097C47 36.1041 46.8726 35.4443 46.5094 34.7653C46.2135 34.2119 45.7881 33.7865 45.2347 33.4906C44.5557 33.1274 43.8959 33 42.0903 33ZM38.2284 4.82461C39.3964 4.47059 40.6036 4.47059 41.7716 4.82461C43.0446 5.21046 43.996 5.85389 45.593 7.45088L48.7935 10.6539C50.2131 12.105 50.8099 13.0224 51.1754 14.2284C51.5294 15.3964 51.5294 16.6036 51.1754 17.7716C50.7895 19.0446 50.1461 19.996 48.5491 21.593L45.593 24.5491C43.996 26.1461 43.0446 26.7895 41.7716 27.1754C40.6036 27.5294 39.3964 27.5294 38.2284 27.1754C36.9554 26.7895 36.004 26.1461 34.407 24.5491L31.4509 21.593C29.8539 19.996 29.2105 19.0446 28.8246 17.7716C28.4706 16.6036 28.4706 15.3964 28.8246 14.2284C29.2105 12.9554 29.8539 12.004 31.4509 10.407L34.6539 7.20655C36.105 5.78687 37.0224 5.19016 38.2284 4.82461ZM13.9097 6.00001L18.4377 6.00184C20.4676 6.02406 21.5382 6.25079 22.6495 6.84512C23.7257 7.42069 24.5793 8.27428 25.1549 9.35049C25.7822 10.5235 26 11.6512 26 13.9097V18.0903C26 20.3488 25.7822 21.4765 25.1549 22.6495C24.5793 23.7257 23.7257 24.5793 22.6495 25.1549C21.4765 25.7822 20.3488 26 18.0903 26H13.9097C11.6512 26 10.5235 25.7822 9.35049 25.1549C8.27427 24.5793 7.42068 23.7257 6.84511 22.6495C6.21777 21.4765 6 20.3488 6 18.0903L6.00184 13.5623C6.02406 11.5324 6.25079 10.4618 6.84511 9.35049C7.42068 8.27428 8.27427 7.42069 9.35049 6.84512C10.5235 6.21778 11.6512 6.00001 13.9097 6.00001ZM40.9014 7.69563C40.3008 7.51359 39.6992 7.51359 39.0986 7.69563C38.3617 7.91898 37.8051 8.29545 36.5283 9.5722L33.378 12.7241C32.2562 13.8642 31.9072 14.4005 31.6956 15.0986C31.5136 15.6992 31.5136 16.3008 31.6956 16.9014C31.8955 17.5607 32.2179 18.0758 33.1981 19.0914L33.5722 19.4717L36.5283 22.4278C37.8051 23.7046 38.3617 24.081 39.0986 24.3044C39.6992 24.4864 40.3008 24.4864 40.9014 24.3044C41.5607 24.1045 42.0758 23.7821 43.0914 22.8019L43.4717 22.4278L46.4278 19.4717C47.7046 18.1949 48.081 17.6383 48.3044 16.9014C48.4864 16.3008 48.4864 15.6992 48.3044 15.0986C48.081 14.3617 47.7046 13.8051 46.4278 12.5283L43.276 9.37798C42.1358 8.25625 41.5995 7.90722 40.9014 7.69563ZM18.0903 9.00001L13.634 9.00108C12.0346 9.01407 11.4085 9.14654 10.7653 9.49056C10.2119 9.78653 9.78652 10.2119 9.49055 10.7653C9.12742 11.4443 9 12.1041 9 13.9097L9.00107 18.366C9.01407 19.9654 9.14653 20.5915 9.49055 21.2347C9.78652 21.7881 10.2119 22.2135 10.7653 22.5095C11.3728 22.8344 11.965 22.9706 13.3763 22.9956L13.9097 23H18.0903C19.8959 23 20.5557 22.8726 21.2347 22.5095C21.7881 22.2135 22.2135 21.7881 22.5094 21.2347C22.8344 20.6272 22.9706 20.035 22.9956 18.6238L23 18.0903V13.9097C23 12.1041 22.8726 11.4443 22.5094 10.7653C22.2135 10.2119 21.7881 9.78653 21.2347 9.49056C20.5557 9.12743 19.8959 9.00001 18.0903 9.00001Z" fill="#6061CA"/>
</svg>
