<svg width="56" height="56" viewBox="0 0 56 56" fill="none" xmlns="http://www.w3.org/2000/svg">
<path d="M29.9787 6.89158L47.6456 23.6751C48.8242 24.7947 49.4915 26.3491 49.4915 27.9748V45.0578C49.4915 47.7873 47.2788 50 44.5493 50H32.688C31.5962 50 30.7111 49.1149 30.7111 48.0231V37.15C30.7111 35.5123 29.3834 34.1846 27.7457 34.1846C26.108 34.1846 24.7804 35.5123 24.7804 37.15V48.0231C24.7804 49.1149 23.8953 50 22.8035 50H10.9422C8.2127 50 6 47.7873 6 45.0578V27.9748C6 26.3491 6.66732 24.7947 7.84592 23.6751L25.5128 6.89158C26.7641 5.70281 28.7274 5.70281 29.9787 6.89158ZM27.7457 10.2237L10.5691 26.5415C10.1762 26.9148 9.95377 27.4329 9.95377 27.9748V45.0578C9.95377 45.6037 10.3963 46.0462 10.9422 46.0462H20.8266V37.15C20.8266 33.3287 23.9244 30.2309 27.7457 30.2309C31.5671 30.2309 34.6648 33.3287 34.6648 37.15V46.0462H44.5493C45.0952 46.0462 45.5377 45.6037 45.5377 45.0578V27.9748C45.5377 27.4329 45.3153 26.9148 44.9224 26.5415L27.7457 10.2237Z" fill="#C7CADD"/>
</svg>
