<svg width="56" height="56" viewBox="0 0 56 56" fill="none" xmlns="http://www.w3.org/2000/svg">
<path d="M28 4C41.2548 4 52 14.7452 52 28C52 41.2548 41.2548 52 28 52C14.7452 52 4 41.2548 4 28C4 14.7452 14.7452 4 28 4ZM28 7C16.402 7 7 16.402 7 28C7 39.598 16.402 49 28 49C39.598 49 49 39.598 49 28C49 16.402 39.598 7 28 7ZM28 24.5C28.7797 24.5 29.4204 25.0949 29.4931 25.8555L29.5 26V37C29.5 37.8284 28.8284 38.5 28 38.5C27.2203 38.5 26.5796 37.9051 26.5069 37.1445L26.5 37V26C26.5 25.1716 27.1716 24.5 28 24.5ZM28 17C29.1046 17 30 17.8954 30 19C30 20.1046 29.1046 21 28 21C26.8954 21 26 20.1046 26 19C26 17.8954 26.8954 17 28 17Z" fill="#C7CADD"/>
</svg>
