<svg width="297" height="90" viewBox="0 0 297 90" fill="none" xmlns="http://www.w3.org/2000/svg">
<path d="M49.96 58.256V40.4L42.28 60.848C41.896 61.904 41.144 62.432 40.024 62.432C38.936 62.432 38.2 61.904 37.816 60.848L30.136 40.4V58.256C30.136 59.408 29.736 60.4 28.936 61.232C28.136 62.032 27.16 62.432 26.008 62.432C24.856 62.432 23.88 62.032 23.08 61.232C22.28 60.4 21.88 59.408 21.88 58.256V36.224C21.88 34.4 22.536 32.832 23.848 31.52C25.16 30.208 26.728 29.552 28.552 29.552C29.96 29.552 31.24 29.968 32.392 30.8C33.544 31.6 34.344 32.656 34.792 33.968L40.024 48.128L45.304 33.968C45.784 32.656 46.6 31.6 47.752 30.8C48.904 29.968 50.184 29.552 51.592 29.552C53.384 29.552 54.936 30.224 56.248 31.568C57.56 32.88 58.216 34.432 58.216 36.224V58.256C58.216 59.408 57.816 60.4 57.016 61.232C56.216 62.032 55.24 62.432 54.088 62.432C52.936 62.432 51.96 62.032 51.16 61.232C50.36 60.4 49.96 59.408 49.96 58.256ZM65.1738 30.8C65.9738 29.968 66.9498 29.552 68.1018 29.552C69.2538 29.552 70.2298 29.968 71.0298 30.8C71.8298 31.6 72.2298 32.576 72.2298 33.728V49.952L83.8938 32.048C84.9498 30.384 86.4538 29.552 88.4058 29.552C89.8778 29.552 91.1258 30.08 92.1498 31.136C93.2058 32.16 93.7338 33.408 93.7338 34.88V58.256C93.7338 59.376 93.3178 60.352 92.4858 61.184C91.6858 62.016 90.7098 62.432 89.5578 62.432C88.4378 62.432 87.4618 62.016 86.6298 61.184C85.8298 60.352 85.4298 59.376 85.4298 58.256V41.12L73.0938 60.128C72.1018 61.664 70.7098 62.432 68.9178 62.432C67.5418 62.432 66.3738 61.952 65.4138 60.992C64.4538 60 63.9738 58.816 63.9738 57.44V33.728C63.9738 32.576 64.3738 31.6 65.1738 30.8ZM99.505 58.256V34.352C99.505 31.44 100.961 29.984 103.873 29.984H115.537C118.961 29.984 121.665 30.992 123.649 33.008C125.665 35.024 126.673 37.568 126.673 40.64C126.673 43.68 125.665 46.192 123.649 48.176C121.665 50.16 118.961 51.152 115.537 51.152H107.761V58.256C107.761 59.408 107.361 60.4 106.561 61.232C105.761 62.032 104.785 62.432 103.633 62.432C102.481 62.432 101.505 62.032 100.705 61.232C99.905 60.4 99.505 59.408 99.505 58.256ZM114.433 36.944H107.761V44.144H114.433C115.553 44.144 116.465 43.824 117.169 43.184C117.905 42.512 118.273 41.648 118.273 40.592C118.273 39.504 117.905 38.624 117.169 37.952C116.465 37.28 115.553 36.944 114.433 36.944ZM167.878 59.6C167.878 60.336 167.622 60.976 167.11 61.52C166.63 62.032 166.022 62.288 165.286 62.288C164.518 62.288 163.862 62.016 163.318 61.472L151.606 48.656L148.774 51.68V59.456C148.774 60.224 148.502 60.896 147.958 61.472C147.414 62.016 146.742 62.288 145.942 62.288C145.174 62.288 144.518 62.016 143.974 61.472C143.43 60.896 143.158 60.224 143.158 59.456V32.528C143.158 31.76 143.43 31.104 143.974 30.56C144.518 29.984 145.174 29.696 145.942 29.696C146.742 29.696 147.414 29.984 147.958 30.56C148.502 31.104 148.774 31.76 148.774 32.528V45.344L162.262 30.56C162.806 29.984 163.462 29.696 164.23 29.696C164.934 29.696 165.542 29.952 166.054 30.464C166.598 30.976 166.87 31.584 166.87 32.288C166.87 32.992 166.63 33.584 166.15 34.064L155.398 45.344L167.158 57.824C167.638 58.336 167.878 58.928 167.878 59.6ZM175.803 29.696C176.571 29.696 177.227 29.984 177.771 30.56C178.315 31.104 178.587 31.76 178.587 32.528V53.552L194.043 31.28C194.843 30.224 195.851 29.696 197.067 29.696C198.091 29.696 198.955 30.048 199.659 30.752C200.363 31.456 200.715 32.32 200.715 33.344V59.456C200.715 60.224 200.443 60.896 199.899 61.472C199.355 62.016 198.683 62.288 197.883 62.288C197.115 62.288 196.459 62.016 195.915 61.472C195.371 60.896 195.099 60.224 195.099 59.456V37.808L179.211 60.8C178.539 61.792 177.595 62.288 176.379 62.288C175.451 62.288 174.651 61.952 173.979 61.28C173.307 60.576 172.971 59.76 172.971 58.832V32.528C172.971 31.76 173.243 31.104 173.787 30.56C174.331 29.984 175.003 29.696 175.803 29.696ZM229.789 59.456V48.032H213.133V59.456C213.133 60.224 212.861 60.896 212.317 61.472C211.773 62.016 211.117 62.288 210.349 62.288C209.549 62.288 208.877 62.016 208.333 61.472C207.789 60.896 207.517 60.224 207.517 59.456V32.528C207.517 31.76 207.789 31.104 208.333 30.56C208.877 29.984 209.533 29.696 210.301 29.696C211.101 29.696 211.773 29.984 212.317 30.56C212.861 31.104 213.133 31.76 213.133 32.528V43.088H229.789V32.528C229.789 31.76 230.061 31.104 230.605 30.56C231.149 29.984 231.821 29.696 232.621 29.696C233.389 29.696 234.045 29.984 234.589 30.56C235.133 31.104 235.405 31.76 235.405 32.528V59.456C235.405 60.224 235.133 60.896 234.589 61.472C234.045 62.016 233.373 62.288 232.573 62.288C231.805 62.288 231.149 62.016 230.605 61.472C230.061 60.896 229.789 60.224 229.789 59.456ZM257.133 29.456C261.837 29.392 265.757 30.96 268.893 34.16C272.029 37.36 273.565 41.312 273.501 46.016C273.565 50.72 272.029 54.688 268.893 57.92C265.757 61.12 261.837 62.672 257.133 62.576C252.429 62.672 248.509 61.12 245.373 57.92C242.237 54.688 240.701 50.72 240.765 46.016C240.701 41.312 242.237 37.36 245.373 34.16C248.509 30.96 252.429 29.392 257.133 29.456ZM264.765 37.712C262.813 35.536 260.269 34.448 257.133 34.448C253.997 34.448 251.437 35.536 249.453 37.712C247.501 39.888 246.525 42.656 246.525 46.016C246.525 49.344 247.501 52.112 249.453 54.32C251.437 56.496 253.997 57.584 257.133 57.584C260.269 57.584 262.813 56.496 264.765 54.32C266.749 52.112 267.741 49.344 267.741 46.016C267.741 42.656 266.749 39.888 264.765 37.712Z" fill="#FFFFFF"/>
</svg>
